<?xml version="1.0" encoding="UTF-8"?>
<svg xmlns="http://www.w3.org/2000/svg" width="1200" height="630" viewBox="0 0 1200 630">
  <defs>
    <linearGradient id="bg" x1="0" y1="0" x2="1" y2="1">
      <stop offset="0" stop-color="#0f172a"/>
      <stop offset="1" stop-color="#1e293b"/>
    </linearGradient>
  </defs>
  <rect width="1200" height="630" fill="url(#bg)"/>
  <!-- Grille de fond discrète -->
  <g stroke="#334155" stroke-width="1" opacity="0.15">
    <line x1="0" y1="105" x2="1200" y2="105"/>
    <line x1="0" y1="210" x2="1200" y2="210"/>
    <line x1="0" y1="315" x2="1200" y2="315"/>
    <line x1="0" y1="420" x2="1200" y2="420"/>
    <line x1="0" y1="525" x2="1200" y2="525"/>
    <line x1="200" y1="0" x2="200" y2="630"/>
    <line x1="400" y1="0" x2="400" y2="630"/>
    <line x1="600" y1="0" x2="600" y2="630"/>
    <line x1="800" y1="0" x2="800" y2="630"/>
    <line x1="1000" y1="0" x2="1000" y2="630"/>
  </g>
  <!-- Logo carré -->
  <rect x="480" y="120" width="240" height="240" rx="52" fill="#ffffff"/>
  <path d="M 552 180 L 600 288 L 648 180 L 630 180 L 600 246 L 570 180 Z" fill="#0f172a"/>
  <circle cx="600" cy="150" r="10" fill="#38bdf8"/>
  <!-- Textes -->
  <text x="600" y="440" text-anchor="middle" font-size="80" font-weight="bold" fill="#ffffff" font-family="Inter, system-ui">Vitrix</text>
  <text x="600" y="500" text-anchor="middle" font-size="32" fill="#cbd5e1" font-family="Inter, system-ui">Visibilité et clients pour artisans</text>
  <text x="600" y="560" text-anchor="middle" font-size="22" fill="#94a3b8" font-family="Inter, system-ui">Vitrine • Réservation • Devis • Paiement</text>
</svg>
